<svg id="svg" version="1.1" xmlns="http://www.w3.org/2000/svg" xmlns:xlink="http://www.w3.org/1999/xlink" width="400" height="400" viewBox="0, 0, 400,400"><g id="svgg"><path id="path0" d="M117.200 0.800 C 117.200 1.553,116.933 1.600,112.700 1.601 C 107.645 1.601,105.505 2.264,105.272 3.900 C 105.149 4.765,104.988 4.800,101.146 4.800 C 96.528 4.800,95.600 5.135,95.600 6.801 L 95.600 7.974 91.100 8.087 L 86.600 8.200 86.217 9.500 C 85.964 10.360,85.584 10.800,85.094 10.800 C 82.896 10.800,80.675 11.746,80.254 12.862 C 79.889 13.830,79.603 14.000,78.347 14.000 C 76.938 14.000,76.858 14.073,76.603 15.583 L 76.335 17.166 73.468 17.283 L 70.600 17.400 70.476 18.900 L 70.352 20.400 67.419 20.400 C 64.295 20.400,64.000 20.590,64.000 22.609 C 64.000 23.410,63.774 23.570,62.500 23.676 C 61.141 23.788,60.989 23.918,60.877 25.063 C 60.759 26.285,60.678 26.336,58.451 26.594 C 55.574 26.928,55.101 27.220,55.045 28.693 C 55.013 29.541,54.828 29.827,54.388 29.712 C 53.046 29.363,51.600 30.324,51.600 31.566 C 51.600 32.647,51.468 32.763,50.100 32.876 C 48.686 32.993,48.593 33.085,48.477 34.477 C 48.362 35.865,48.265 35.962,46.877 36.077 C 45.459 36.195,45.400 36.260,45.400 37.700 C 45.400 39.148,45.351 39.201,44.000 39.203 C 42.865 39.205,42.471 39.431,41.919 40.403 C 41.544 41.061,40.779 41.809,40.219 42.064 C 39.402 42.436,39.200 42.814,39.200 43.964 C 39.201 45.357,39.155 45.400,37.700 45.400 C 36.260 45.400,36.195 45.459,36.077 46.877 C 35.962 48.265,35.865 48.362,34.477 48.477 C 33.085 48.593,32.993 48.686,32.876 50.100 C 32.763 51.468,32.647 51.600,31.566 51.600 C 30.324 51.600,29.363 53.046,29.712 54.388 C 29.827 54.828,29.541 55.013,28.693 55.045 C 27.220 55.101,26.928 55.574,26.594 58.451 C 26.336 60.678,26.285 60.759,25.063 60.877 C 23.918 60.989,23.788 61.141,23.676 62.500 C 23.570 63.774,23.410 64.000,22.609 64.000 C 20.590 64.000,20.400 64.295,20.400 67.419 L 20.400 70.352 18.900 70.476 L 17.400 70.600 17.283 73.468 L 17.166 76.335 15.583 76.603 C 14.073 76.858,14.000 76.938,14.000 78.347 C 14.000 79.603,13.830 79.889,12.862 80.254 C 11.746 80.675,10.800 82.896,10.800 85.094 C 10.800 85.584,10.360 85.964,9.500 86.217 L 8.200 86.600 8.087 91.100 L 7.974 95.600 6.801 95.600 C 5.135 95.600,4.800 96.528,4.800 101.146 C 4.800 104.988,4.765 105.149,3.900 105.272 C 2.264 105.505,1.601 107.645,1.601 112.700 C 1.600 116.933,1.553 117.200,0.800 117.200 C 0.007 117.200,0.000 117.467,0.000 149.200 C 0.000 180.933,0.007 181.200,0.800 181.200 C 1.542 181.200,1.603 181.482,1.647 185.100 C 1.714 190.577,1.919 191.317,3.500 191.783 L 4.800 192.165 4.806 196.183 C 4.813 200.737,4.906 200.992,6.700 201.382 L 8.000 201.664 8.000 205.989 C 8.000 210.538,8.108 210.800,9.981 210.800 C 10.562 210.800,10.750 211.270,10.979 213.296 C 11.300 216.130,11.695 216.800,13.049 216.800 C 13.850 216.800,14.000 217.000,14.000 218.066 C 14.000 219.957,15.208 222.387,16.283 222.657 C 17.065 222.853,17.200 223.145,17.200 224.643 L 17.200 226.400 18.783 226.400 L 20.366 226.400 20.483 229.500 L 20.600 232.600 22.100 232.724 C 23.523 232.842,23.600 232.920,23.600 234.244 C 23.600 236.063,24.592 237.941,25.794 238.398 C 26.531 238.678,26.778 239.108,26.875 240.280 C 26.988 241.658,27.117 241.811,28.252 241.922 C 29.372 242.031,29.531 242.211,29.757 243.622 C 29.994 245.103,30.093 245.200,31.381 245.200 C 32.676 245.200,32.759 245.283,32.876 246.700 C 32.993 248.114,33.085 248.207,34.477 248.323 C 35.865 248.438,35.962 248.535,36.077 249.923 C 36.193 251.315,36.286 251.407,37.700 251.524 C 39.131 251.643,39.202 251.716,39.240 253.124 C 39.328 256.393,40.799 257.934,43.875 257.981 C 45.016 257.998,45.162 258.136,45.275 259.300 C 45.389 260.483,45.533 260.611,46.877 260.723 C 48.265 260.838,48.362 260.935,48.477 262.323 C 48.593 263.715,48.686 263.807,50.100 263.924 C 51.508 264.041,51.600 264.130,51.600 265.381 C 51.600 266.784,52.105 267.200,53.807 267.200 C 54.576 267.200,54.772 267.437,54.875 268.490 C 54.988 269.654,55.162 269.811,56.675 270.108 C 57.937 270.356,58.380 270.644,58.475 271.278 C 58.544 271.740,58.870 272.244,59.200 272.397 C 59.530 272.550,60.203 272.884,60.695 273.138 C 61.187 273.392,62.120 273.600,62.769 273.600 C 63.808 273.600,63.964 273.755,64.075 274.900 C 64.198 276.174,64.243 276.202,66.376 276.324 C 68.602 276.450,70.400 277.644,70.400 278.998 C 70.400 279.365,70.971 279.596,72.084 279.677 C 73.505 279.781,73.804 279.956,74.000 280.800 C 74.265 281.941,76.085 282.741,78.500 282.777 C 79.888 282.798,80.000 282.888,80.000 283.976 C 80.000 285.460,80.202 285.574,83.363 285.869 C 85.905 286.107,85.960 286.137,86.079 287.340 C 86.230 288.868,86.962 289.106,91.682 289.160 L 95.164 289.200 95.426 290.600 L 95.689 292.000 100.245 292.000 L 104.800 292.000 104.800 293.120 C 104.800 294.971,105.382 295.200,110.080 295.200 C 114.362 295.200,114.400 295.208,114.400 296.151 C 114.400 298.144,114.725 298.191,129.420 298.324 C 142.608 298.443,143.127 298.476,143.323 299.227 C 144.072 302.092,152.049 302.098,153.582 299.234 C 154.020 298.415,154.259 298.400,167.188 298.400 C 181.419 298.400,182.159 298.306,182.531 296.445 L 182.775 295.226 187.287 295.113 L 191.800 295.000 191.924 293.500 L 192.048 292.000 196.581 292.000 C 201.377 292.000,201.600 291.910,201.600 289.967 C 201.600 289.267,201.921 289.200,205.300 289.195 C 210.300 289.187,210.800 289.025,210.800 287.407 L 210.800 286.107 213.645 285.904 C 216.593 285.693,217.182 285.336,217.194 283.755 C 217.199 283.002,217.489 282.886,219.850 282.697 C 222.609 282.475,223.183 282.098,223.194 280.500 C 223.199 279.728,223.413 279.600,224.700 279.599 C 226.460 279.597,228.618 278.405,228.991 277.228 C 229.205 276.555,229.586 276.400,231.027 276.400 C 232.772 276.400,232.800 276.379,232.800 275.057 L 232.800 273.714 235.259 273.457 C 238.044 273.166,238.800 272.716,238.800 271.351 C 238.800 269.618,242.306 269.951,242.475 271.700 C 242.585 272.849,242.763 273.023,244.000 273.200 C 245.203 273.372,245.419 273.569,245.536 274.599 C 245.687 275.927,246.176 276.385,247.453 276.394 C 248.242 276.400,248.994 277.591,248.822 278.563 C 248.732 279.074,249.643 279.587,250.655 279.594 C 251.313 279.599,251.571 279.921,251.771 280.985 C 251.993 282.169,252.228 282.406,253.393 282.625 C 254.470 282.827,254.780 283.093,254.877 283.900 C 255.009 284.993,255.555 285.416,257.305 285.785 C 258.268 285.988,258.377 286.154,258.146 287.071 C 257.952 287.844,258.078 288.268,258.617 288.662 C 259.276 289.144,259.282 289.200,258.676 289.200 C 258.154 289.200,258.000 289.564,258.000 290.800 L 258.000 292.400 256.400 292.400 L 254.800 292.400 254.800 299.813 C 254.800 305.394,254.924 307.263,255.300 307.379 C 255.575 307.464,256.295 307.642,256.900 307.774 C 257.843 307.981,258.000 308.214,258.000 309.408 C 258.000 310.764,258.042 310.800,259.587 310.800 C 260.835 310.800,261.126 310.929,260.944 311.401 C 260.372 312.893,261.147 314.000,262.765 314.000 C 264.392 314.000,264.800 313.563,264.800 311.820 C 264.800 311.212,265.301 310.567,266.300 309.890 C 267.125 309.330,269.420 307.234,271.400 305.230 C 273.380 303.226,275.308 301.275,275.685 300.894 C 276.061 300.512,281.596 294.989,287.985 288.621 C 294.373 282.252,299.600 276.883,299.600 276.688 C 299.600 276.237,306.723 269.205,308.084 268.313 C 308.648 267.943,309.505 267.002,309.987 266.220 C 310.588 265.249,311.161 264.800,311.800 264.800 C 313.564 264.800,314.000 264.396,314.000 262.765 C 314.000 261.147,312.893 260.372,311.401 260.944 C 310.929 261.126,310.800 260.835,310.800 259.587 C 310.800 258.049,310.758 258.000,309.440 258.000 C 308.198 258.000,308.049 257.870,307.725 256.500 L 307.371 255.000 299.885 254.891 L 292.400 254.782 292.400 256.391 L 292.400 258.000 290.800 258.000 C 289.564 258.000,289.200 258.154,289.200 258.676 C 289.200 259.283,289.144 259.277,288.663 258.618 C 288.288 258.106,287.801 257.945,287.059 258.087 C 286.081 258.274,285.971 258.162,285.744 256.740 C 285.500 255.211,284.281 254.332,283.273 254.955 C 283.068 255.082,282.788 254.488,282.652 253.636 C 282.406 252.094,281.851 251.600,280.367 251.600 C 279.840 251.600,279.598 251.318,279.594 250.700 C 279.587 249.649,279.082 248.730,278.563 248.822 C 277.591 248.994,276.400 248.242,276.394 247.453 C 276.385 246.176,275.927 245.687,274.599 245.536 C 273.569 245.419,273.372 245.203,273.200 244.000 C 273.023 242.763,272.849 242.585,271.700 242.475 C 269.951 242.306,269.618 238.800,271.351 238.800 C 272.716 238.800,273.166 238.044,273.457 235.259 L 273.714 232.800 275.057 232.800 C 276.379 232.800,276.400 232.772,276.400 231.027 C 276.400 229.586,276.555 229.205,277.228 228.991 C 278.405 228.618,279.597 226.460,279.599 224.700 C 279.600 223.413,279.728 223.199,280.500 223.194 C 282.098 223.183,282.475 222.609,282.697 219.850 C 282.886 217.489,283.002 217.199,283.755 217.194 C 285.336 217.182,285.693 216.593,285.904 213.645 L 286.107 210.800 287.407 210.800 C 289.025 210.800,289.187 210.300,289.195 205.300 C 289.200 201.921,289.267 201.600,289.967 201.600 C 291.910 201.600,292.000 201.377,292.000 196.581 L 292.000 192.048 293.500 191.924 L 295.000 191.800 295.113 187.287 L 295.226 182.775 296.445 182.531 C 298.306 182.159,298.400 181.419,298.400 167.188 C 298.400 154.259,298.415 154.020,299.234 153.582 C 302.098 152.049,302.092 144.072,299.227 143.323 C 298.476 143.127,298.443 142.608,298.324 129.420 C 298.191 114.725,298.144 114.400,296.151 114.400 C 295.208 114.400,295.200 114.362,295.200 110.080 C 295.200 105.382,294.971 104.800,293.120 104.800 L 292.000 104.800 292.000 100.245 L 292.000 95.689 290.600 95.426 L 289.200 95.164 289.160 91.682 C 289.106 86.962,288.868 86.230,287.340 86.079 C 286.137 85.960,286.107 85.905,285.869 83.363 C 285.574 80.202,285.460 80.000,283.976 80.000 C 282.888 80.000,282.798 79.888,282.777 78.500 C 282.741 76.085,281.941 74.265,280.800 74.000 C 279.956 73.804,279.781 73.505,279.677 72.084 C 279.596 70.971,279.365 70.400,278.998 70.400 C 277.644 70.400,276.450 68.602,276.324 66.376 C 276.202 64.243,276.174 64.198,274.900 64.075 C 273.755 63.964,273.600 63.808,273.600 62.769 C 273.600 62.120,273.392 61.187,273.138 60.695 C 272.884 60.203,272.550 59.530,272.397 59.200 C 272.244 58.870,271.740 58.544,271.278 58.475 C 270.644 58.380,270.356 57.937,270.108 56.675 C 269.811 55.162,269.654 54.988,268.490 54.875 C 267.437 54.772,267.200 54.576,267.200 53.807 C 267.200 52.105,266.784 51.600,265.381 51.600 C 264.130 51.600,264.041 51.508,263.924 50.100 C 263.807 48.686,263.715 48.593,262.323 48.477 C 260.935 48.362,260.838 48.265,260.723 46.877 C 260.611 45.533,260.483 45.389,259.300 45.275 C 258.136 45.162,257.998 45.016,257.981 43.875 C 257.934 40.799,256.393 39.328,253.124 39.240 C 251.716 39.202,251.643 39.131,251.524 37.700 C 251.407 36.286,251.315 36.193,249.923 36.077 C 248.535 35.962,248.438 35.865,248.323 34.477 C 248.207 33.085,248.114 32.993,246.700 32.876 C 245.283 32.759,245.200 32.676,245.200 31.381 C 245.200 30.093,245.103 29.994,243.622 29.757 C 242.211 29.531,242.031 29.372,241.922 28.252 C 241.811 27.117,241.658 26.988,240.280 26.875 C 239.108 26.778,238.678 26.531,238.398 25.794 C 237.941 24.592,236.063 23.600,234.244 23.600 C 232.920 23.600,232.842 23.523,232.724 22.100 L 232.600 20.600 229.500 20.483 L 226.400 20.366 226.400 18.783 L 226.400 17.200 224.643 17.200 C 223.145 17.200,222.853 17.065,222.657 16.283 C 222.387 15.208,219.957 14.000,218.066 14.000 C 217.000 14.000,216.800 13.850,216.800 13.049 C 216.800 11.695,216.130 11.300,213.296 10.979 C 211.270 10.750,210.800 10.562,210.800 9.981 C 210.800 8.108,210.538 8.000,205.989 8.000 L 201.664 8.000 201.382 6.700 C 200.992 4.906,200.737 4.813,196.183 4.806 L 192.165 4.800 191.783 3.500 C 191.317 1.919,190.577 1.714,185.100 1.647 C 181.482 1.603,181.200 1.542,181.200 0.800 C 181.200 0.007,180.933 0.000,149.200 0.000 C 117.467 0.000,117.200 0.007,117.200 0.800 M158.480 24.443 C 159.678 24.693,161.044 25.302,161.622 25.843 C 162.617 26.775,162.828 26.801,169.822 26.840 C 178.079 26.886,178.714 27.001,179.605 28.612 C 180.251 29.780,180.330 29.804,184.291 30.022 C 188.284 30.243,191.200 31.424,191.200 32.820 C 191.200 33.029,192.595 33.202,194.300 33.204 C 197.309 33.208,197.440 33.249,198.747 34.595 C 199.602 35.475,200.624 36.069,201.547 36.222 C 203.822 36.598,204.042 36.728,204.507 37.959 C 204.885 38.960,205.213 39.152,206.941 39.381 C 209.494 39.720,210.247 40.137,210.562 41.389 C 210.767 42.209,211.060 42.400,212.108 42.402 C 214.739 42.407,216.409 43.147,216.665 44.423 C 216.853 45.365,217.110 45.601,217.950 45.606 C 219.306 45.614,219.752 45.935,220.441 47.400 C 220.828 48.222,221.344 48.639,222.080 48.724 C 222.676 48.793,223.845 49.539,224.704 50.398 C 225.557 51.251,226.756 52.074,227.370 52.228 C 228.127 52.418,228.667 52.942,229.048 53.854 C 229.462 54.844,229.861 55.200,230.556 55.200 C 231.658 55.200,232.229 55.780,232.606 57.280 C 232.815 58.116,233.151 58.382,234.115 58.477 C 235.116 58.576,235.414 58.833,235.666 59.814 C 235.900 60.724,236.307 61.125,237.289 61.414 C 238.363 61.730,238.622 62.026,238.721 63.048 C 238.820 64.063,239.080 64.365,240.110 64.660 C 241.060 64.932,241.470 65.348,241.748 66.319 C 242.001 67.200,242.435 67.694,243.103 67.862 C 243.721 68.017,244.296 68.612,244.652 69.463 C 244.963 70.208,245.923 71.545,246.786 72.433 C 247.810 73.489,248.396 74.489,248.476 75.322 C 248.579 76.384,248.798 76.630,249.788 76.800 C 250.815 76.976,251.021 77.234,251.311 78.702 C 251.566 79.992,251.831 80.400,252.414 80.400 C 253.489 80.400,254.305 81.838,254.628 84.300 C 254.844 85.953,255.056 86.400,255.623 86.400 C 256.852 86.400,257.508 87.481,257.799 89.988 C 258.028 91.965,258.212 92.400,258.817 92.400 C 259.861 92.400,260.800 93.926,260.800 95.623 C 260.800 96.804,261.094 97.332,262.400 98.505 C 263.978 99.921,264.000 99.980,264.000 102.744 C 264.000 105.200,264.099 105.578,264.804 105.801 C 266.058 106.199,266.669 107.891,266.972 111.800 C 267.228 115.112,267.351 115.504,268.505 116.701 C 269.989 118.240,270.347 120.455,270.379 128.300 C 270.396 132.342,270.503 133.200,270.990 133.200 C 273.772 133.200,274.347 160.515,271.622 163.239 C 270.528 164.334,270.522 164.369,270.297 171.320 C 270.062 178.604,269.701 180.199,267.973 181.600 C 267.394 182.070,267.174 183.005,266.958 185.921 C 266.678 189.691,265.890 191.600,264.613 191.600 C 264.232 191.600,264.045 192.484,263.940 194.782 C 263.800 197.874,263.753 198.003,262.298 199.336 C 261.281 200.267,260.800 201.052,260.800 201.780 C 260.800 203.241,260.136 204.368,259.025 204.790 C 258.266 205.079,258.049 205.544,257.821 207.371 C 257.528 209.713,256.830 210.800,255.618 210.800 C 255.034 210.800,254.836 211.251,254.606 213.100 C 254.243 216.011,253.816 216.800,252.604 216.800 C 251.806 216.800,251.588 217.058,251.361 218.270 C 251.200 219.125,250.566 220.247,249.842 220.953 C 249.159 221.620,248.293 222.850,247.918 223.686 C 247.525 224.563,246.812 225.367,246.234 225.587 C 245.588 225.833,245.113 226.426,244.899 227.251 C 244.578 228.489,244.135 228.920,242.751 229.339 C 242.393 229.448,241.985 230.155,241.843 230.912 C 241.634 232.028,241.340 232.359,240.294 232.659 C 239.293 232.946,238.957 233.296,238.801 234.215 C 238.648 235.116,238.304 235.487,237.365 235.765 C 236.474 236.027,236.027 236.474,235.765 237.365 C 235.487 238.304,235.116 238.648,234.215 238.801 C 233.296 238.957,232.946 239.293,232.659 240.294 C 232.359 241.340,232.028 241.634,230.912 241.843 C 230.155 241.985,229.448 242.393,229.339 242.751 C 228.920 244.135,228.489 244.578,227.251 244.899 C 226.426 245.113,225.833 245.588,225.587 246.234 C 225.367 246.812,224.563 247.525,223.686 247.918 C 222.850 248.293,221.620 249.159,220.953 249.842 C 220.247 250.566,219.125 251.200,218.270 251.361 C 217.058 251.588,216.800 251.806,216.800 252.604 C 216.800 253.816,216.011 254.243,213.100 254.606 C 211.251 254.836,210.800 255.034,210.800 255.618 C 210.800 256.830,209.713 257.528,207.371 257.821 C 205.544 258.049,205.079 258.266,204.790 259.025 C 204.368 260.136,203.241 260.800,201.780 260.800 C 201.052 260.800,200.267 261.281,199.336 262.298 C 198.003 263.753,197.874 263.800,194.782 263.940 C 192.484 264.045,191.600 264.232,191.600 264.613 C 191.600 265.890,189.691 266.678,185.921 266.958 C 183.005 267.174,182.070 267.394,181.600 267.973 C 180.199 269.701,178.604 270.062,171.320 270.297 C 164.369 270.522,164.334 270.528,163.239 271.622 C 160.515 274.347,133.200 273.772,133.200 270.990 C 133.200 270.503,132.342 270.396,128.300 270.379 C 120.455 270.347,118.240 269.989,116.701 268.505 C 115.504 267.351,115.112 267.228,111.800 266.972 C 107.891 266.669,106.199 266.058,105.801 264.804 C 105.578 264.099,105.200 264.000,102.744 264.000 C 99.980 264.000,99.921 263.978,98.505 262.400 C 97.332 261.094,96.804 260.800,95.623 260.800 C 93.926 260.800,92.400 259.861,92.400 258.817 C 92.400 258.212,91.965 258.028,89.988 257.799 C 87.481 257.508,86.400 256.852,86.400 255.623 C 86.400 255.056,85.953 254.844,84.300 254.628 C 81.838 254.305,80.400 253.489,80.400 252.414 C 80.400 251.831,79.992 251.566,78.702 251.311 C 77.234 251.021,76.976 250.815,76.800 249.788 C 76.630 248.798,76.384 248.579,75.322 248.476 C 74.489 248.396,73.489 247.810,72.433 246.786 C 71.545 245.923,70.208 244.963,69.463 244.652 C 68.612 244.296,68.017 243.721,67.862 243.103 C 67.694 242.435,67.200 242.001,66.319 241.748 C 65.348 241.470,64.932 241.060,64.660 240.110 C 64.365 239.080,64.063 238.820,63.048 238.721 C 62.026 238.622,61.730 238.363,61.414 237.289 C 61.125 236.307,60.724 235.900,59.814 235.666 C 58.833 235.414,58.576 235.116,58.477 234.115 C 58.382 233.151,58.116 232.815,57.280 232.606 C 55.780 232.229,55.200 231.658,55.200 230.556 C 55.200 229.861,54.844 229.462,53.854 229.048 C 52.942 228.667,52.418 228.127,52.228 227.370 C 52.074 226.756,51.251 225.557,50.398 224.704 C 49.539 223.845,48.793 222.676,48.724 222.080 C 48.639 221.344,48.222 220.828,47.400 220.441 C 45.935 219.752,45.614 219.306,45.606 217.950 C 45.601 217.110,45.365 216.853,44.423 216.665 C 43.147 216.409,42.407 214.739,42.402 212.108 C 42.400 211.060,42.209 210.767,41.389 210.562 C 40.137 210.247,39.720 209.494,39.381 206.941 C 39.152 205.213,38.960 204.885,37.959 204.507 C 36.728 204.042,36.598 203.822,36.222 201.547 C 36.069 200.624,35.475 199.602,34.595 198.747 C 33.249 197.440,33.208 197.309,33.204 194.300 C 33.202 192.595,33.029 191.200,32.820 191.200 C 31.424 191.200,30.243 188.284,30.022 184.291 C 29.804 180.330,29.780 180.251,28.612 179.605 C 27.001 178.714,26.886 178.079,26.840 169.822 C 26.801 162.828,26.775 162.617,25.843 161.622 C 23.200 158.801,23.194 138.048,25.835 135.568 C 26.780 134.679,26.801 134.516,26.847 127.630 C 26.905 118.997,27.020 118.368,28.657 117.646 L 29.913 117.093 30.064 113.006 L 30.216 108.920 31.708 107.513 C 33.162 106.141,33.200 106.033,33.200 103.226 C 33.200 99.921,33.644 98.800,34.951 98.800 C 35.788 98.800,35.908 98.548,36.237 96.100 C 36.573 93.601,36.695 93.355,37.877 92.800 C 39.013 92.267,39.185 91.961,39.430 90.047 C 39.709 87.863,40.660 86.400,41.800 86.400 C 42.220 86.400,42.400 85.976,42.400 84.987 C 42.400 82.849,43.373 80.872,44.574 80.571 C 45.372 80.371,45.600 80.063,45.600 79.185 C 45.600 77.800,46.534 76.800,47.829 76.800 C 48.626 76.800,48.800 76.599,48.800 75.678 C 48.800 74.948,49.303 74.007,50.242 72.982 C 51.035 72.116,51.981 70.778,52.343 70.009 C 52.705 69.239,53.474 68.384,54.050 68.107 C 54.702 67.795,55.187 67.164,55.332 66.439 C 55.510 65.551,55.897 65.164,56.959 64.814 C 58.115 64.432,58.374 64.136,58.476 63.077 C 58.577 62.041,58.833 61.731,59.835 61.435 C 60.726 61.173,61.173 60.726,61.435 59.835 C 61.731 58.833,62.041 58.577,63.077 58.476 C 64.136 58.374,64.432 58.115,64.814 56.959 C 65.164 55.897,65.551 55.510,66.439 55.332 C 67.164 55.187,67.795 54.702,68.107 54.050 C 68.384 53.474,69.239 52.705,70.009 52.343 C 70.778 51.981,72.116 51.035,72.982 50.242 C 74.007 49.303,74.948 48.800,75.678 48.800 C 76.599 48.800,76.800 48.626,76.800 47.829 C 76.800 46.534,77.800 45.600,79.185 45.600 C 80.063 45.600,80.371 45.372,80.571 44.574 C 80.872 43.373,82.849 42.400,84.987 42.400 C 85.976 42.400,86.400 42.220,86.400 41.800 C 86.400 40.660,87.863 39.709,90.047 39.430 C 91.961 39.185,92.267 39.013,92.800 37.877 C 93.355 36.695,93.601 36.573,96.100 36.237 C 98.548 35.908,98.800 35.788,98.800 34.951 C 98.800 33.644,99.921 33.200,103.226 33.200 C 106.033 33.200,106.141 33.162,107.513 31.708 L 108.920 30.216 113.006 30.064 L 117.093 29.913 117.646 28.657 C 118.367 27.021,119.000 26.906,127.578 26.847 C 134.399 26.801,134.579 26.778,135.578 25.824 C 137.339 24.143,152.628 23.220,158.480 24.443 " stroke="none" fill="#425768" fill-rule="evenodd"></path><path id="path1" d="M313.600 264.389 C 313.270 264.609,312.529 264.791,311.953 264.794 C 311.177 264.798,310.630 265.217,309.836 266.417 C 309.247 267.307,301.438 275.306,292.483 284.194 C 283.527 293.081,275.930 300.636,275.600 300.981 C 271.401 305.378,267.957 308.715,266.631 309.673 C 263.842 311.688,263.173 316.915,265.677 317.123 C 267.065 317.238,267.162 317.335,267.277 318.723 C 267.393 320.111,267.489 320.207,268.877 320.323 C 270.265 320.438,270.362 320.535,270.477 321.923 C 270.593 323.315,270.686 323.407,272.100 323.524 C 273.519 323.642,273.600 323.723,273.600 325.024 C 273.600 326.320,273.678 326.400,274.949 326.400 C 276.213 326.400,276.314 326.500,276.554 328.000 C 276.794 329.506,276.890 329.600,278.181 329.600 C 279.476 329.600,279.559 329.683,279.676 331.100 C 279.793 332.514,279.885 332.607,281.277 332.723 C 282.665 332.838,282.762 332.935,282.877 334.323 C 282.993 335.711,283.089 335.807,284.477 335.923 C 285.865 336.038,285.962 336.135,286.077 337.523 C 286.193 338.915,286.286 339.007,287.700 339.124 C 289.119 339.242,289.200 339.323,289.200 340.624 C 289.200 341.963,289.243 342.000,290.800 342.000 L 292.400 342.000 292.400 343.600 C 292.400 345.157,292.437 345.200,293.776 345.200 C 295.077 345.200,295.158 345.281,295.276 346.700 C 295.393 348.114,295.485 348.207,296.877 348.323 C 298.265 348.438,298.362 348.535,298.477 349.923 C 298.593 351.311,298.689 351.407,300.077 351.523 C 301.465 351.638,301.562 351.735,301.677 353.123 C 301.793 354.511,301.889 354.607,303.277 354.723 C 304.665 354.838,304.762 354.935,304.877 356.323 C 304.993 357.715,305.086 357.807,306.500 357.924 C 307.919 358.042,308.000 358.123,308.000 359.424 C 308.000 360.730,308.071 360.800,309.400 360.800 C 310.614 360.800,310.800 360.928,310.800 361.767 C 310.800 363.496,311.211 364.000,312.619 364.000 C 313.870 364.000,313.959 364.092,314.076 365.500 C 314.193 366.914,314.285 367.007,315.677 367.123 C 317.065 367.238,317.162 367.335,317.277 368.723 C 317.393 370.111,317.489 370.207,318.877 370.323 C 320.265 370.438,320.362 370.535,320.477 371.923 C 320.593 373.315,320.686 373.407,322.100 373.524 C 323.519 373.642,323.600 373.723,323.600 375.024 C 323.600 376.320,323.678 376.400,324.949 376.400 C 326.213 376.400,326.314 376.500,326.554 378.000 C 326.794 379.506,326.890 379.600,328.181 379.600 C 329.476 379.600,329.559 379.683,329.676 381.100 C 329.793 382.514,329.885 382.607,331.277 382.723 C 332.665 382.838,332.762 382.935,332.877 384.323 C 332.993 385.711,333.089 385.807,334.477 385.923 C 335.865 386.038,335.962 386.135,336.077 387.523 C 336.193 388.915,336.286 389.007,337.700 389.124 C 339.119 389.242,339.200 389.323,339.200 390.624 C 339.200 391.963,339.243 392.000,340.800 392.000 L 342.400 392.000 342.400 393.600 L 342.400 395.200 344.000 395.200 C 345.514 395.200,345.600 395.265,345.600 396.410 C 345.600 397.871,346.670 398.400,349.626 398.400 C 351.333 398.400,351.600 398.508,351.600 399.200 C 351.600 399.986,351.867 400.000,367.200 400.000 C 382.151 400.000,382.800 399.969,382.800 399.255 C 382.800 398.624,383.208 398.477,385.450 398.297 C 388.209 398.075,388.783 397.698,388.794 396.100 C 388.799 395.318,389.009 395.200,390.400 395.200 L 392.000 395.200 392.000 393.600 L 392.000 392.000 393.600 392.000 L 395.200 392.000 395.200 390.400 C 395.200 389.009,395.318 388.799,396.100 388.794 C 397.698 388.783,398.075 388.209,398.297 385.450 C 398.477 383.208,398.624 382.800,399.255 382.800 C 399.969 382.800,400.000 382.151,400.000 367.200 C 400.000 352.249,399.969 351.600,399.255 351.600 C 398.624 351.600,398.477 351.192,398.297 348.950 C 398.075 346.191,397.698 345.617,396.100 345.606 C 395.318 345.601,395.200 345.391,395.200 344.000 L 395.200 342.400 393.600 342.400 L 392.000 342.400 392.000 340.800 C 392.000 339.243,391.963 339.200,390.624 339.200 C 389.323 339.200,389.242 339.119,389.124 337.700 C 389.007 336.286,388.915 336.193,387.523 336.077 C 386.135 335.962,386.038 335.865,385.923 334.477 C 385.807 333.089,385.711 332.993,384.323 332.877 C 382.935 332.762,382.838 332.665,382.723 331.277 C 382.607 329.885,382.514 329.793,381.100 329.676 C 379.683 329.559,379.600 329.476,379.600 328.181 C 379.600 326.890,379.506 326.794,378.000 326.554 C 376.500 326.314,376.400 326.213,376.400 324.949 C 376.400 323.678,376.320 323.600,375.024 323.600 C 373.723 323.600,373.642 323.519,373.524 322.100 C 373.407 320.686,373.315 320.593,371.923 320.477 C 370.535 320.362,370.438 320.265,370.323 318.877 C 370.207 317.489,370.111 317.393,368.723 317.277 C 367.335 317.162,367.238 317.065,367.123 315.677 C 367.007 314.285,366.914 314.193,365.500 314.076 C 364.092 313.959,364.000 313.870,364.000 312.619 C 364.000 311.211,363.496 310.800,361.767 310.800 C 360.928 310.800,360.800 310.614,360.800 309.400 C 360.800 308.071,360.730 308.000,359.424 308.000 C 358.123 308.000,358.042 307.919,357.924 306.500 C 357.807 305.086,357.715 304.993,356.323 304.877 C 354.935 304.762,354.838 304.665,354.723 303.277 C 354.607 301.889,354.511 301.793,353.123 301.677 C 351.735 301.562,351.638 301.465,351.523 300.077 C 351.407 298.689,351.311 298.593,349.923 298.477 C 348.535 298.362,348.438 298.265,348.323 296.877 C 348.207 295.485,348.114 295.393,346.700 295.276 C 345.281 295.158,345.200 295.077,345.200 293.776 C 345.200 292.437,345.157 292.400,343.600 292.400 L 342.000 292.400 342.000 290.800 C 342.000 289.243,341.963 289.200,340.624 289.200 C 339.323 289.200,339.242 289.119,339.124 287.700 C 339.007 286.286,338.915 286.193,337.523 286.077 C 336.135 285.962,336.038 285.865,335.923 284.477 C 335.807 283.089,335.711 282.993,334.323 282.877 C 332.935 282.762,332.838 282.665,332.723 281.277 C 332.607 279.885,332.514 279.793,331.100 279.676 C 329.683 279.559,329.600 279.476,329.600 278.181 C 329.600 276.890,329.506 276.794,328.000 276.554 C 326.500 276.314,326.400 276.213,326.400 274.949 C 326.400 273.678,326.320 273.600,325.024 273.600 C 323.723 273.600,323.642 273.519,323.524 272.100 C 323.407 270.686,323.315 270.593,321.923 270.477 C 320.535 270.362,320.438 270.265,320.323 268.877 C 320.207 267.489,320.111 267.393,318.723 267.277 C 317.335 267.162,317.238 267.065,317.123 265.677 C 316.992 264.099,315.086 263.403,313.600 264.389 " stroke="none" fill="#fb963a" fill-rule="evenodd"></path><path id="path2" d="M139.600 28.639 C 132.440 28.973,126.852 29.658,124.766 30.457 C 123.575 30.913,121.175 31.539,119.433 31.846 C 117.691 32.154,115.310 32.858,114.142 33.410 C 112.974 33.963,110.591 34.664,108.847 34.968 C 107.079 35.277,104.907 35.966,103.938 36.526 C 102.982 37.079,101.390 37.757,100.400 38.032 C 99.410 38.308,98.150 38.933,97.600 39.421 C 96.272 40.600,94.243 41.600,93.180 41.600 C 92.708 41.600,91.844 42.111,91.260 42.735 C 90.677 43.359,89.210 44.195,88.000 44.592 C 86.790 44.990,85.655 45.562,85.477 45.864 C 85.299 46.165,84.129 46.959,82.877 47.629 C 79.798 49.273,76.635 51.564,75.597 52.900 C 75.127 53.505,74.547 54.000,74.310 54.000 C 74.072 54.000,73.211 54.675,72.397 55.500 C 71.583 56.325,69.873 57.810,68.598 58.800 C 65.627 61.105,61.105 65.627,58.800 68.598 C 57.810 69.873,56.325 71.583,55.500 72.397 C 54.675 73.211,54.000 74.072,54.000 74.310 C 54.000 74.547,53.505 75.127,52.900 75.597 C 51.564 76.635,49.273 79.798,47.629 82.877 C 46.959 84.129,46.165 85.299,45.864 85.477 C 45.562 85.655,44.990 86.790,44.592 88.000 C 44.195 89.210,43.359 90.677,42.735 91.260 C 42.111 91.844,41.600 92.708,41.600 93.180 C 41.600 94.243,40.600 96.272,39.421 97.600 C 38.933 98.150,38.308 99.410,38.032 100.400 C 37.757 101.390,37.079 102.982,36.526 103.938 C 35.966 104.907,35.277 107.079,34.968 108.847 C 34.664 110.591,33.950 113.001,33.382 114.201 C 32.814 115.402,32.160 117.603,31.929 119.092 C 31.698 120.581,31.088 122.970,30.574 124.400 C 27.874 131.908,27.891 166.433,30.597 173.128 C 31.102 174.378,31.722 176.750,31.973 178.400 C 32.225 180.050,32.856 182.217,33.375 183.216 C 33.895 184.215,34.620 186.632,34.986 188.586 C 35.371 190.640,35.982 192.559,36.434 193.134 C 36.864 193.681,37.591 195.363,38.049 196.872 C 38.525 198.439,39.188 199.779,39.593 199.996 C 40.346 200.399,41.600 203.118,41.600 204.346 C 41.600 204.748,41.979 205.419,42.443 205.838 C 43.412 206.715,44.800 209.276,44.800 210.188 C 44.800 210.529,45.174 211.121,45.632 211.504 C 46.089 211.887,46.978 213.325,47.607 214.700 C 48.235 216.075,48.934 217.200,49.158 217.200 C 49.383 217.200,50.032 217.995,50.601 218.966 C 51.170 219.937,52.075 221.019,52.612 221.371 C 53.148 221.722,53.701 222.463,53.840 223.017 C 53.979 223.570,54.510 224.243,55.020 224.511 C 55.530 224.780,56.365 225.573,56.874 226.273 C 60.380 231.093,62.369 233.193,68.250 238.290 C 69.323 239.219,71.030 240.704,72.045 241.590 C 73.059 242.475,74.045 243.200,74.236 243.200 C 74.427 243.200,75.250 243.875,76.065 244.700 C 78.608 247.273,80.613 248.761,82.893 249.770 C 84.103 250.305,85.186 250.986,85.300 251.284 C 85.414 251.581,86.543 252.151,87.808 252.550 C 89.073 252.949,90.501 253.699,90.981 254.217 C 91.462 254.736,92.743 255.457,93.827 255.819 C 94.912 256.182,96.250 256.885,96.800 257.382 C 97.350 257.878,98.790 258.594,100.000 258.972 C 101.210 259.350,102.830 260.079,103.600 260.592 C 104.441 261.153,106.198 261.719,108.000 262.011 C 109.650 262.279,111.990 263.006,113.200 263.628 C 114.410 264.249,116.660 264.969,118.200 265.227 C 119.740 265.486,122.006 266.115,123.236 266.627 C 125.517 267.575,127.344 267.755,143.447 268.621 C 153.190 269.145,171.938 267.833,174.673 266.435 C 175.513 266.006,177.100 265.536,178.200 265.391 C 181.289 264.983,183.218 264.411,184.370 263.559 C 184.950 263.130,187.190 262.425,189.348 261.990 C 191.676 261.522,193.690 260.872,194.299 260.393 C 194.864 259.949,196.294 259.304,197.477 258.960 C 198.661 258.616,200.050 257.913,200.565 257.398 C 201.081 256.883,202.289 256.238,203.251 255.964 C 204.213 255.691,205.540 254.980,206.200 254.385 C 206.860 253.790,208.300 252.980,209.400 252.586 C 210.500 252.191,211.670 251.549,212.000 251.158 C 212.330 250.768,213.559 250.075,214.731 249.618 C 215.904 249.161,217.295 248.273,217.823 247.645 C 218.352 247.017,219.321 246.281,219.979 246.009 C 220.636 245.737,221.282 245.171,221.415 244.753 C 221.548 244.334,222.216 243.702,222.900 243.348 C 223.583 242.995,224.786 242.093,225.571 241.345 C 228.119 238.917,228.976 238.181,230.400 237.197 C 232.201 235.952,235.952 232.201,237.197 230.400 C 238.181 228.976,238.917 228.119,241.345 225.571 C 242.093 224.786,242.995 223.583,243.348 222.900 C 243.702 222.216,244.334 221.548,244.753 221.415 C 245.171 221.282,245.737 220.636,246.009 219.979 C 246.281 219.321,247.017 218.352,247.645 217.823 C 248.273 217.295,249.161 215.904,249.618 214.731 C 250.075 213.559,250.768 212.330,251.158 212.000 C 251.549 211.670,252.191 210.500,252.586 209.400 C 252.980 208.300,253.790 206.860,254.385 206.200 C 254.980 205.540,255.691 204.213,255.964 203.251 C 256.238 202.289,256.883 201.081,257.398 200.565 C 257.913 200.050,258.616 198.661,258.960 197.477 C 259.304 196.294,259.949 194.864,260.393 194.299 C 260.872 193.690,261.522 191.676,261.990 189.348 C 262.425 187.190,263.130 184.950,263.559 184.370 C 264.411 183.218,264.983 181.289,265.391 178.200 C 265.536 177.100,266.006 175.513,266.435 174.673 C 267.833 171.938,269.145 153.190,268.621 143.447 C 267.755 127.344,267.575 125.517,266.627 123.236 C 266.115 122.006,265.486 119.740,265.227 118.200 C 264.969 116.660,264.249 114.410,263.628 113.200 C 263.006 111.990,262.279 109.650,262.011 108.000 C 261.719 106.198,261.153 104.441,260.592 103.600 C 260.079 102.830,259.350 101.210,258.972 100.000 C 258.594 98.790,257.878 97.350,257.382 96.800 C 256.885 96.250,256.182 94.912,255.819 93.827 C 255.457 92.743,254.736 91.462,254.217 90.981 C 253.699 90.501,252.949 89.073,252.550 87.808 C 252.151 86.543,251.581 85.414,251.284 85.300 C 250.986 85.186,250.305 84.103,249.770 82.893 C 248.761 80.613,247.273 78.608,244.700 76.065 C 243.875 75.250,243.200 74.427,243.200 74.236 C 243.200 74.045,242.475 73.059,241.590 72.045 C 240.704 71.030,239.219 69.323,238.290 68.250 C 233.193 62.369,231.093 60.380,226.273 56.874 C 225.573 56.365,224.780 55.530,224.511 55.020 C 224.243 54.510,223.570 53.979,223.017 53.840 C 222.463 53.701,221.722 53.148,221.371 52.612 C 221.019 52.075,219.937 51.170,218.966 50.601 C 217.995 50.032,217.200 49.383,217.200 49.158 C 217.200 48.934,216.075 48.235,214.700 47.607 C 213.325 46.978,211.887 46.089,211.504 45.632 C 211.121 45.174,210.529 44.800,210.188 44.800 C 209.276 44.800,206.715 43.412,205.838 42.443 C 205.419 41.979,204.748 41.600,204.346 41.600 C 203.109 41.600,200.398 40.343,199.990 39.581 C 199.771 39.173,198.599 38.571,197.301 38.200 C 196.036 37.839,194.343 37.115,193.539 36.592 C 192.668 36.024,190.657 35.374,188.556 34.980 C 186.618 34.617,184.215 33.895,183.216 33.375 C 182.217 32.856,180.050 32.224,178.400 31.971 C 176.750 31.718,174.320 31.091,173.000 30.576 C 169.277 29.124,151.408 28.088,139.600 28.639 " stroke="none" fill="#cce4f3" fill-rule="evenodd"></path><path id="path3" d="M147.148 26.185 C 146.782 26.552,137.266 27.577,130.695 27.958 C 124.836 28.297,123.721 28.474,121.855 29.357 C 120.680 29.912,118.081 30.725,116.079 31.162 C 114.077 31.599,112.025 32.212,111.519 32.524 C 110.559 33.118,108.540 33.679,104.755 34.404 C 103.520 34.640,101.916 35.272,101.190 35.807 C 100.465 36.343,99.225 36.993,98.435 37.253 C 97.646 37.514,96.125 38.328,95.055 39.063 C 93.985 39.798,92.886 40.400,92.611 40.400 C 92.336 40.400,91.412 40.880,90.556 41.467 C 89.700 42.054,88.100 42.878,87.000 43.298 C 85.900 43.718,84.550 44.476,84.000 44.984 C 83.450 45.491,82.190 46.264,81.200 46.701 C 80.210 47.138,78.871 48.059,78.225 48.748 C 77.579 49.437,76.823 50.000,76.546 50.000 C 76.268 50.000,75.560 50.630,74.973 51.400 C 74.386 52.170,73.670 52.800,73.382 52.800 C 73.094 52.800,72.350 53.407,71.729 54.149 C 71.108 54.891,70.015 55.795,69.300 56.159 C 68.585 56.523,68.000 56.994,68.000 57.205 C 68.000 57.417,67.301 58.031,66.447 58.571 C 64.445 59.834,59.834 64.445,58.571 66.447 C 58.031 67.301,57.417 68.000,57.205 68.000 C 56.994 68.000,56.523 68.585,56.159 69.300 C 55.795 70.015,54.891 71.108,54.149 71.729 C 53.407 72.350,52.800 73.094,52.800 73.382 C 52.800 73.670,52.170 74.386,51.400 74.973 C 50.630 75.560,50.000 76.268,50.000 76.546 C 50.000 76.823,49.437 77.579,48.748 78.225 C 48.059 78.871,47.138 80.210,46.701 81.200 C 46.264 82.190,45.491 83.450,44.984 84.000 C 44.476 84.550,43.718 85.900,43.298 87.000 C 42.878 88.100,42.054 89.700,41.467 90.556 C 40.880 91.412,40.400 92.336,40.400 92.611 C 40.400 92.886,39.798 93.985,39.063 95.055 C 38.328 96.125,37.514 97.646,37.253 98.435 C 36.993 99.225,36.343 100.465,35.807 101.190 C 35.272 101.916,34.640 103.520,34.404 104.755 C 33.679 108.540,33.118 110.559,32.524 111.519 C 32.212 112.025,31.599 114.077,31.162 116.079 C 30.725 118.081,29.915 120.676,29.361 121.845 C 28.500 123.665,28.303 124.848,27.991 130.085 C 27.503 138.268,27.267 140.739,26.564 145.023 C 26.032 148.260,26.035 149.025,26.591 152.214 C 26.934 154.177,27.478 159.790,27.801 164.689 C 28.338 172.810,28.479 173.765,29.401 175.529 C 29.957 176.593,30.685 178.889,31.018 180.631 C 31.352 182.373,31.979 184.529,32.411 185.424 C 32.844 186.318,33.560 188.740,34.001 190.806 C 34.466 192.979,35.207 195.161,35.759 195.981 C 36.284 196.762,36.923 198.063,37.179 198.873 C 37.435 199.683,38.164 201.000,38.800 201.800 C 39.436 202.600,40.168 203.917,40.427 204.727 C 40.687 205.537,41.334 206.782,41.865 207.494 C 42.396 208.205,43.100 209.550,43.429 210.482 C 43.758 211.414,44.372 212.545,44.794 212.994 C 45.216 213.443,45.836 214.468,46.172 215.270 C 46.507 216.073,47.506 217.567,48.391 218.589 C 49.276 219.612,50.003 220.573,50.007 220.724 C 50.011 220.876,51.196 222.260,52.641 223.800 C 54.085 225.340,55.521 227.084,55.831 227.676 C 56.142 228.267,56.720 228.987,57.116 229.276 C 57.512 229.564,58.224 230.437,58.699 231.215 C 59.900 233.187,67.677 240.373,69.864 241.532 C 70.339 241.784,71.276 242.487,71.945 243.095 C 72.614 243.703,74.077 245.010,75.196 246.000 C 76.315 246.990,77.718 248.273,78.315 248.851 C 78.912 249.428,80.082 250.120,80.915 250.386 C 81.748 250.653,82.976 251.371,83.644 251.981 C 84.312 252.592,85.558 253.300,86.411 253.556 C 87.265 253.812,88.489 254.463,89.130 255.003 C 89.772 255.542,91.151 256.350,92.194 256.798 C 93.238 257.245,94.599 257.972,95.220 258.414 C 95.840 258.856,97.124 259.490,98.074 259.825 C 99.023 260.159,100.430 260.859,101.200 261.381 C 101.970 261.902,103.988 262.610,105.684 262.952 C 107.380 263.295,109.630 264.026,110.684 264.577 C 111.738 265.128,114.074 265.859,115.875 266.200 C 117.676 266.542,120.120 267.265,121.305 267.808 C 123.168 268.661,124.406 268.851,130.430 269.209 C 134.264 269.436,139.200 269.907,141.400 270.255 C 147.754 271.259,149.628 271.326,153.021 270.672 C 157.313 269.845,159.038 269.666,167.200 269.202 C 173.380 268.850,174.421 268.689,176.085 267.829 C 177.121 267.293,179.551 266.560,181.485 266.200 C 183.418 265.841,185.720 265.129,186.600 264.620 C 187.480 264.110,189.602 263.404,191.316 263.052 C 194.466 262.404,195.692 261.938,196.820 260.959 C 197.161 260.663,198.153 260.169,199.025 259.862 C 199.898 259.554,201.483 258.749,202.549 258.073 C 203.614 257.398,204.993 256.733,205.612 256.597 C 206.230 256.462,207.222 255.901,207.815 255.351 C 208.408 254.801,209.818 253.989,210.947 253.546 C 212.076 253.103,213.362 252.402,213.805 251.990 C 214.248 251.577,215.473 250.857,216.529 250.390 C 217.584 249.923,218.545 249.288,218.663 248.979 C 218.782 248.669,219.447 248.064,220.140 247.633 C 220.833 247.202,222.570 245.755,224.000 244.417 C 225.430 243.080,227.092 241.734,227.693 241.427 C 230.811 239.834,239.834 230.811,241.427 227.693 C 241.734 227.092,243.080 225.430,244.417 224.000 C 245.755 222.570,247.202 220.833,247.633 220.140 C 248.064 219.447,248.669 218.782,248.979 218.663 C 249.288 218.545,249.923 217.584,250.390 216.529 C 250.857 215.473,251.577 214.248,251.990 213.805 C 252.402 213.362,253.103 212.076,253.546 210.947 C 253.989 209.818,254.801 208.408,255.351 207.815 C 255.901 207.222,256.462 206.230,256.597 205.612 C 256.733 204.993,257.398 203.614,258.073 202.549 C 258.749 201.483,259.554 199.898,259.862 199.025 C 260.169 198.153,260.663 197.161,260.959 196.820 C 261.938 195.692,262.404 194.466,263.052 191.316 C 263.404 189.602,264.110 187.480,264.620 186.600 C 265.129 185.720,265.841 183.418,266.200 181.485 C 266.560 179.551,267.293 177.121,267.829 176.085 C 268.689 174.421,268.850 173.380,269.202 167.200 C 269.666 159.038,269.845 157.313,270.672 153.021 C 271.326 149.628,271.259 147.754,270.255 141.400 C 269.907 139.200,269.436 134.264,269.209 130.430 C 268.851 124.406,268.661 123.168,267.808 121.305 C 267.265 120.120,266.542 117.676,266.200 115.875 C 265.859 114.074,265.128 111.738,264.577 110.684 C 264.026 109.630,263.295 107.380,262.952 105.684 C 262.610 103.988,261.902 101.970,261.381 101.200 C 260.859 100.430,260.159 99.023,259.825 98.074 C 259.490 97.124,258.856 95.840,258.414 95.220 C 257.972 94.599,257.245 93.238,256.798 92.194 C 256.350 91.151,255.542 89.772,255.003 89.130 C 254.463 88.489,253.812 87.265,253.556 86.411 C 253.300 85.558,252.592 84.312,251.981 83.644 C 251.371 82.976,250.653 81.748,250.386 80.915 C 250.120 80.082,249.428 78.912,248.851 78.315 C 248.273 77.718,246.990 76.315,246.000 75.196 C 245.010 74.077,243.703 72.614,243.095 71.945 C 242.487 71.276,241.784 70.339,241.532 69.864 C 240.373 67.677,233.187 59.900,231.215 58.699 C 230.437 58.224,229.564 57.512,229.276 57.116 C 228.987 56.720,228.267 56.142,227.676 55.831 C 227.084 55.521,225.340 54.085,223.800 52.641 C 222.260 51.196,220.876 50.011,220.724 50.007 C 220.573 50.003,219.612 49.276,218.589 48.391 C 217.567 47.506,216.073 46.507,215.270 46.172 C 214.468 45.836,213.443 45.216,212.994 44.794 C 212.545 44.372,211.414 43.758,210.482 43.429 C 209.550 43.100,208.205 42.396,207.494 41.865 C 206.782 41.334,205.537 40.687,204.727 40.427 C 203.917 40.168,202.600 39.436,201.800 38.800 C 201.000 38.164,199.683 37.435,198.873 37.179 C 198.063 36.923,196.762 36.284,195.981 35.759 C 195.161 35.207,192.979 34.466,190.806 34.001 C 188.740 33.560,186.318 32.844,185.424 32.411 C 184.529 31.979,182.373 31.352,180.631 31.018 C 178.889 30.685,176.593 29.957,175.529 29.401 C 173.765 28.479,172.810 28.338,164.686 27.801 C 159.787 27.478,154.253 26.944,152.389 26.614 C 148.847 25.988,147.459 25.874,147.148 26.185 M166.352 29.232 C 168.994 29.486,171.507 29.994,173.000 30.576 C 174.320 31.091,176.750 31.718,178.400 31.971 C 180.050 32.224,182.217 32.856,183.216 33.375 C 184.215 33.895,186.618 34.617,188.556 34.980 C 190.657 35.374,192.668 36.024,193.539 36.592 C 194.343 37.115,196.036 37.839,197.301 38.200 C 198.599 38.571,199.771 39.173,199.990 39.581 C 200.398 40.343,203.109 41.600,204.346 41.600 C 204.748 41.600,205.419 41.979,205.838 42.443 C 206.715 43.412,209.276 44.800,210.188 44.800 C 210.529 44.800,211.121 45.174,211.504 45.632 C 211.887 46.089,213.325 46.978,214.700 47.607 C 216.075 48.235,217.200 48.934,217.200 49.158 C 217.200 49.383,217.995 50.032,218.966 50.601 C 219.937 51.170,221.019 52.075,221.371 52.612 C 221.722 53.148,222.463 53.701,223.017 53.840 C 223.570 53.979,224.243 54.510,224.511 55.020 C 224.780 55.530,225.573 56.365,226.273 56.874 C 231.093 60.380,233.193 62.369,238.290 68.250 C 239.219 69.323,240.704 71.030,241.590 72.045 C 242.475 73.059,243.200 74.045,243.200 74.236 C 243.200 74.427,243.875 75.250,244.700 76.065 C 247.273 78.608,248.761 80.613,249.770 82.893 C 250.305 84.103,250.986 85.186,251.284 85.300 C 251.581 85.414,252.151 86.543,252.550 87.808 C 252.949 89.073,253.699 90.501,254.217 90.981 C 254.736 91.462,255.457 92.743,255.819 93.827 C 256.182 94.912,256.885 96.250,257.382 96.800 C 257.878 97.350,258.594 98.790,258.972 100.000 C 259.350 101.210,260.079 102.830,260.592 103.600 C 261.153 104.441,261.719 106.198,262.011 108.000 C 262.279 109.650,263.006 111.990,263.628 113.200 C 264.249 114.410,264.969 116.660,265.227 118.200 C 265.486 119.740,266.115 122.006,266.627 123.236 C 267.575 125.517,267.755 127.344,268.621 143.447 C 269.145 153.190,267.833 171.938,266.435 174.673 C 266.006 175.513,265.536 177.100,265.391 178.200 C 264.983 181.289,264.411 183.218,263.559 184.370 C 263.130 184.950,262.425 187.190,261.990 189.348 C 261.522 191.676,260.872 193.690,260.393 194.299 C 259.949 194.864,259.304 196.294,258.960 197.477 C 258.616 198.661,257.913 200.050,257.398 200.565 C 256.883 201.081,256.238 202.289,255.964 203.251 C 255.691 204.213,254.980 205.540,254.385 206.200 C 253.790 206.860,252.980 208.300,252.586 209.400 C 252.191 210.500,251.549 211.670,251.158 212.000 C 250.768 212.330,250.075 213.559,249.618 214.731 C 249.161 215.904,248.273 217.295,247.645 217.823 C 247.017 218.352,246.281 219.321,246.009 219.979 C 245.737 220.636,245.171 221.282,244.753 221.415 C 244.334 221.548,243.702 222.216,243.348 222.900 C 242.995 223.583,242.093 224.786,241.345 225.571 C 238.917 228.119,238.181 228.976,237.197 230.400 C 235.952 232.201,232.201 235.952,230.400 237.197 C 228.976 238.181,228.119 238.917,225.571 241.345 C 224.786 242.093,223.583 242.995,222.900 243.348 C 222.216 243.702,221.548 244.334,221.415 244.753 C 221.282 245.171,220.636 245.737,219.979 246.009 C 219.321 246.281,218.352 247.017,217.823 247.645 C 217.295 248.273,215.904 249.161,214.731 249.618 C 213.559 250.075,212.330 250.768,212.000 251.158 C 211.670 251.549,210.500 252.191,209.400 252.586 C 208.300 252.980,206.860 253.790,206.200 254.385 C 205.540 254.980,204.213 255.691,203.251 255.964 C 202.289 256.238,201.081 256.883,200.565 257.398 C 200.050 257.913,198.661 258.616,197.477 258.960 C 196.294 259.304,194.864 259.949,194.299 260.393 C 193.690 260.872,191.676 261.522,189.348 261.990 C 187.190 262.425,184.950 263.130,184.370 263.559 C 183.218 264.411,181.289 264.983,178.200 265.391 C 177.100 265.536,175.513 266.006,174.673 266.435 C 171.938 267.833,153.190 269.145,143.447 268.621 C 127.344 267.755,125.517 267.575,123.236 266.627 C 122.006 266.115,119.740 265.486,118.200 265.227 C 116.660 264.969,114.410 264.249,113.200 263.628 C 111.990 263.006,109.650 262.279,108.000 262.011 C 106.198 261.719,104.441 261.153,103.600 260.592 C 102.830 260.079,101.210 259.350,100.000 258.972 C 98.790 258.594,97.350 257.878,96.800 257.382 C 96.250 256.885,94.912 256.182,93.827 255.819 C 92.743 255.457,91.462 254.736,90.981 254.217 C 90.501 253.699,89.073 252.949,87.808 252.550 C 86.543 252.151,85.414 251.581,85.300 251.284 C 85.186 250.986,84.103 250.305,82.893 249.770 C 80.613 248.761,78.608 247.273,76.065 244.700 C 75.250 243.875,74.427 243.200,74.236 243.200 C 74.045 243.200,73.059 242.475,72.045 241.590 C 71.030 240.704,69.323 239.219,68.250 238.290 C 62.369 233.193,60.380 231.093,56.874 226.273 C 56.365 225.573,55.530 224.780,55.020 224.511 C 54.510 224.243,53.979 223.570,53.840 223.017 C 53.701 222.463,53.148 221.722,52.612 221.371 C 52.075 221.019,51.170 219.937,50.601 218.966 C 50.032 217.995,49.383 217.200,49.158 217.200 C 48.934 217.200,48.235 216.075,47.607 214.700 C 46.978 213.325,46.089 211.887,45.632 211.504 C 45.174 211.121,44.800 210.529,44.800 210.188 C 44.800 209.276,43.412 206.715,42.443 205.838 C 41.979 205.419,41.600 204.748,41.600 204.346 C 41.600 203.118,40.346 200.399,39.593 199.996 C 39.188 199.779,38.525 198.439,38.049 196.872 C 37.591 195.363,36.864 193.681,36.434 193.134 C 35.982 192.559,35.371 190.640,34.986 188.586 C 34.620 186.632,33.895 184.215,33.375 183.216 C 32.856 182.217,32.225 180.050,31.973 178.400 C 31.722 176.750,31.102 174.378,30.597 173.128 C 27.891 166.433,27.874 131.908,30.574 124.400 C 31.088 122.970,31.698 120.581,31.929 119.092 C 32.160 117.603,32.814 115.402,33.382 114.201 C 33.950 113.001,34.664 110.591,34.968 108.847 C 35.277 107.079,35.966 104.907,36.526 103.938 C 37.079 102.982,37.757 101.390,38.032 100.400 C 38.308 99.410,38.933 98.150,39.421 97.600 C 40.600 96.272,41.600 94.243,41.600 93.180 C 41.600 92.708,42.111 91.844,42.735 91.260 C 43.359 90.677,44.195 89.210,44.592 88.000 C 44.990 86.790,45.562 85.655,45.864 85.477 C 46.165 85.299,46.959 84.129,47.629 82.877 C 49.273 79.798,51.564 76.635,52.900 75.597 C 53.505 75.127,54.000 74.547,54.000 74.310 C 54.000 74.072,54.675 73.211,55.500 72.397 C 56.325 71.583,57.810 69.873,58.800 68.598 C 61.105 65.627,65.627 61.105,68.598 58.800 C 69.873 57.810,71.583 56.325,72.397 55.500 C 73.211 54.675,74.072 54.000,74.310 54.000 C 74.547 54.000,75.127 53.505,75.597 52.900 C 76.635 51.564,79.798 49.273,82.877 47.629 C 84.129 46.959,85.299 46.165,85.477 45.864 C 85.655 45.562,86.790 44.990,88.000 44.592 C 89.210 44.195,90.677 43.359,91.260 42.735 C 91.844 42.111,92.708 41.600,93.180 41.600 C 94.243 41.600,96.272 40.600,97.600 39.421 C 98.150 38.933,99.410 38.308,100.400 38.032 C 101.390 37.757,102.982 37.079,103.938 36.526 C 104.907 35.966,107.079 35.277,108.847 34.968 C 110.591 34.664,112.974 33.963,114.142 33.410 C 115.310 32.858,117.691 32.154,119.433 31.846 C 121.175 31.539,123.575 30.913,124.766 30.457 C 129.573 28.615,152.797 27.931,166.352 29.232 " stroke="none" fill="#8da0b2" fill-rule="evenodd"></path><path id="path4" d="M138.600 24.469 C 137.426 24.692,136.178 25.252,135.578 25.824 C 134.579 26.778,134.399 26.801,127.578 26.847 C 119.000 26.906,118.367 27.021,117.646 28.657 L 117.093 29.913 113.006 30.064 L 108.920 30.216 107.513 31.708 C 106.141 33.162,106.033 33.200,103.226 33.200 C 99.921 33.200,98.800 33.644,98.800 34.951 C 98.800 35.788,98.548 35.908,96.100 36.237 C 93.601 36.573,93.355 36.695,92.800 37.877 C 92.267 39.013,91.961 39.185,90.047 39.430 C 87.863 39.709,86.400 40.660,86.400 41.800 C 86.400 42.220,85.976 42.400,84.987 42.400 C 82.849 42.400,80.872 43.373,80.571 44.574 C 80.371 45.372,80.063 45.600,79.185 45.600 C 77.800 45.600,76.800 46.534,76.800 47.829 C 76.800 48.626,76.599 48.800,75.678 48.800 C 74.948 48.800,74.007 49.303,72.982 50.242 C 72.116 51.035,70.778 51.981,70.009 52.343 C 69.239 52.705,68.384 53.474,68.107 54.050 C 67.795 54.702,67.164 55.187,66.439 55.332 C 65.551 55.510,65.164 55.897,64.814 56.959 C 64.432 58.115,64.136 58.374,63.077 58.476 C 62.041 58.577,61.731 58.833,61.435 59.835 C 61.173 60.726,60.726 61.173,59.835 61.435 C 58.833 61.731,58.577 62.041,58.476 63.077 C 58.374 64.136,58.115 64.432,56.959 64.814 C 55.897 65.164,55.510 65.551,55.332 66.439 C 55.187 67.164,54.702 67.795,54.050 68.107 C 53.474 68.384,52.705 69.239,52.343 70.009 C 51.981 70.778,51.035 72.116,50.242 72.982 C 49.303 74.007,48.800 74.948,48.800 75.678 C 48.800 76.599,48.626 76.800,47.829 76.800 C 46.534 76.800,45.600 77.800,45.600 79.185 C 45.600 80.063,45.372 80.371,44.574 80.571 C 43.373 80.872,42.400 82.849,42.400 84.987 C 42.400 85.976,42.220 86.400,41.800 86.400 C 40.660 86.400,39.709 87.863,39.430 90.047 C 39.185 91.961,39.013 92.267,37.877 92.800 C 36.695 93.355,36.573 93.601,36.237 96.100 C 35.908 98.548,35.788 98.800,34.951 98.800 C 33.644 98.800,33.200 99.921,33.200 103.226 C 33.200 106.033,33.162 106.141,31.708 107.513 L 30.216 108.920 30.064 113.006 L 29.913 117.093 28.657 117.646 C 27.020 118.368,26.905 118.997,26.847 127.630 C 26.801 134.516,26.780 134.679,25.835 135.568 C 23.194 138.048,23.200 158.801,25.843 161.622 C 26.775 162.617,26.801 162.828,26.840 169.822 C 26.886 178.079,27.001 178.714,28.612 179.605 C 29.780 180.251,29.804 180.330,30.022 184.291 C 30.243 188.284,31.424 191.200,32.820 191.200 C 33.029 191.200,33.202 192.595,33.204 194.300 C 33.208 197.309,33.249 197.440,34.595 198.747 C 35.475 199.602,36.069 200.624,36.222 201.547 C 36.598 203.822,36.728 204.042,37.959 204.507 C 38.960 204.885,39.152 205.213,39.381 206.941 C 39.720 209.494,40.137 210.247,41.389 210.562 C 42.209 210.767,42.400 211.060,42.402 212.108 C 42.407 214.739,43.147 216.409,44.423 216.665 C 45.365 216.853,45.601 217.110,45.606 217.950 C 45.614 219.306,45.935 219.752,47.400 220.441 C 48.222 220.828,48.639 221.344,48.724 222.080 C 48.793 222.676,49.539 223.845,50.398 224.704 C 51.251 225.557,52.074 226.756,52.228 227.370 C 52.418 228.127,52.942 228.667,53.854 229.048 C 54.844 229.462,55.200 229.861,55.200 230.556 C 55.200 231.658,55.780 232.229,57.280 232.606 C 58.116 232.815,58.382 233.151,58.477 234.115 C 58.576 235.116,58.833 235.414,59.814 235.666 C 60.724 235.900,61.125 236.307,61.414 237.289 C 61.730 238.363,62.026 238.622,63.048 238.721 C 64.063 238.820,64.365 239.080,64.660 240.110 C 64.932 241.060,65.348 241.470,66.319 241.748 C 67.200 242.001,67.694 242.435,67.862 243.103 C 68.017 243.721,68.612 244.296,69.463 244.652 C 70.208 244.963,71.545 245.923,72.433 246.786 C 73.489 247.810,74.489 248.396,75.322 248.476 C 76.384 248.579,76.630 248.798,76.800 249.788 C 76.976 250.815,77.234 251.021,78.702 251.311 C 79.992 251.566,80.400 251.831,80.400 252.414 C 80.400 253.489,81.838 254.305,84.300 254.628 C 85.953 254.844,86.400 255.056,86.400 255.623 C 86.400 256.852,87.481 257.508,89.988 257.799 C 91.965 258.028,92.400 258.212,92.400 258.817 C 92.400 259.861,93.926 260.800,95.623 260.800 C 96.804 260.800,97.332 261.094,98.505 262.400 C 99.921 263.978,99.980 264.000,102.744 264.000 C 105.200 264.000,105.578 264.099,105.801 264.804 C 106.199 266.058,107.891 266.669,111.800 266.972 C 115.112 267.228,115.504 267.351,116.701 268.505 C 118.240 269.989,120.455 270.347,128.300 270.379 C 132.342 270.396,133.200 270.503,133.200 270.990 C 133.200 273.772,160.515 274.347,163.239 271.622 C 164.334 270.528,164.369 270.522,171.320 270.297 C 178.604 270.062,180.199 269.701,181.600 267.973 C 182.070 267.394,183.005 267.174,185.921 266.958 C 189.691 266.678,191.600 265.890,191.600 264.613 C 191.600 264.232,192.484 264.045,194.782 263.940 C 197.874 263.800,198.003 263.753,199.336 262.298 C 200.267 261.281,201.052 260.800,201.780 260.800 C 203.241 260.800,204.368 260.136,204.790 259.025 C 205.079 258.266,205.544 258.049,207.371 257.821 C 209.713 257.528,210.800 256.830,210.800 255.618 C 210.800 255.034,211.251 254.836,213.100 254.606 C 216.011 254.243,216.800 253.816,216.800 252.604 C 216.800 251.806,217.058 251.588,218.270 251.361 C 219.125 251.200,220.247 250.566,220.953 249.842 C 221.620 249.159,222.850 248.293,223.686 247.918 C 224.563 247.525,225.367 246.812,225.587 246.234 C 225.833 245.588,226.426 245.113,227.251 244.899 C 228.489 244.578,228.920 244.135,229.339 242.751 C 229.448 242.393,230.155 241.985,230.912 241.843 C 232.028 241.634,232.359 241.340,232.659 240.294 C 232.946 239.293,233.296 238.957,234.215 238.801 C 235.116 238.648,235.487 238.304,235.765 237.365 C 236.027 236.474,236.474 236.027,237.365 235.765 C 238.304 235.487,238.648 235.116,238.801 234.215 C 238.957 233.296,239.293 232.946,240.294 232.659 C 241.340 232.359,241.634 232.028,241.843 230.912 C 241.985 230.155,242.393 229.448,242.751 229.339 C 244.135 228.920,244.578 228.489,244.899 227.251 C 245.113 226.426,245.588 225.833,246.234 225.587 C 246.812 225.367,247.525 224.563,247.918 223.686 C 248.293 222.850,249.159 221.620,249.842 220.953 C 250.566 220.247,251.200 219.125,251.361 218.270 C 251.588 217.058,251.806 216.800,252.604 216.800 C 253.816 216.800,254.243 216.011,254.606 213.100 C 254.836 211.251,255.034 210.800,255.618 210.800 C 256.830 210.800,257.528 209.713,257.821 207.371 C 258.049 205.544,258.266 205.079,259.025 204.790 C 260.136 204.368,260.800 203.241,260.800 201.780 C 260.800 201.052,261.281 200.267,262.298 199.336 C 263.753 198.003,263.800 197.874,263.940 194.782 C 264.045 192.484,264.232 191.600,264.613 191.600 C 265.890 191.600,266.678 189.691,266.958 185.921 C 267.174 183.005,267.394 182.070,267.973 181.600 C 269.701 180.199,270.062 178.604,270.297 171.320 C 270.522 164.369,270.528 164.334,271.622 163.239 C 274.347 160.515,273.772 133.200,270.990 133.200 C 270.503 133.200,270.396 132.342,270.379 128.300 C 270.347 120.455,269.989 118.240,268.505 116.701 C 267.351 115.504,267.228 115.112,266.972 111.800 C 266.669 107.891,266.058 106.199,264.804 105.801 C 264.099 105.578,264.000 105.200,264.000 102.744 C 264.000 99.980,263.978 99.921,262.400 98.505 C 261.094 97.332,260.800 96.804,260.800 95.623 C 260.800 93.926,259.861 92.400,258.817 92.400 C 258.212 92.400,258.028 91.965,257.799 89.988 C 257.508 87.481,256.852 86.400,255.623 86.400 C 255.056 86.400,254.844 85.953,254.628 84.300 C 254.305 81.838,253.489 80.400,252.414 80.400 C 251.831 80.400,251.566 79.992,251.311 78.702 C 251.021 77.234,250.815 76.976,249.788 76.800 C 248.798 76.630,248.579 76.384,248.476 75.322 C 248.396 74.489,247.810 73.489,246.786 72.433 C 245.923 71.545,244.963 70.208,244.652 69.463 C 244.296 68.612,243.721 68.017,243.103 67.862 C 242.435 67.694,242.001 67.200,241.748 66.319 C 241.470 65.348,241.060 64.932,240.110 64.660 C 239.080 64.365,238.820 64.063,238.721 63.048 C 238.622 62.026,238.363 61.730,237.289 61.414 C 236.307 61.125,235.900 60.724,235.666 59.814 C 235.414 58.833,235.116 58.576,234.115 58.477 C 233.151 58.382,232.815 58.116,232.606 57.280 C 232.229 55.780,231.658 55.200,230.556 55.200 C 229.861 55.200,229.462 54.844,229.048 53.854 C 228.667 52.942,228.127 52.418,227.370 52.228 C 226.756 52.074,225.557 51.251,224.704 50.398 C 223.845 49.539,222.676 48.793,222.080 48.724 C 221.344 48.639,220.828 48.222,220.441 47.400 C 219.752 45.935,219.306 45.614,217.950 45.606 C 217.110 45.601,216.853 45.365,216.665 44.423 C 216.409 43.147,214.739 42.407,212.108 42.402 C 211.060 42.400,210.767 42.209,210.562 41.389 C 210.247 40.137,209.494 39.720,206.941 39.381 C 205.213 39.152,204.885 38.960,204.507 37.959 C 204.042 36.728,203.822 36.598,201.547 36.222 C 200.624 36.069,199.602 35.475,198.747 34.595 C 197.440 33.249,197.309 33.208,194.300 33.204 C 192.595 33.202,191.200 33.029,191.200 32.820 C 191.200 31.424,188.284 30.243,184.291 30.022 C 180.330 29.804,180.251 29.780,179.605 28.612 C 178.714 27.001,178.079 26.886,169.822 26.840 C 162.828 26.801,162.617 26.775,161.622 25.843 C 159.773 24.111,145.100 23.236,138.600 24.469 M152.389 26.614 C 154.253 26.944,159.787 27.478,164.686 27.801 C 172.810 28.338,173.765 28.479,175.529 29.401 C 176.593 29.957,178.889 30.685,180.631 31.018 C 182.373 31.352,184.529 31.979,185.424 32.411 C 186.318 32.844,188.740 33.560,190.806 34.001 C 192.979 34.466,195.161 35.207,195.981 35.759 C 196.762 36.284,198.063 36.923,198.873 37.179 C 199.683 37.435,201.000 38.164,201.800 38.800 C 202.600 39.436,203.917 40.168,204.727 40.427 C 205.537 40.687,206.782 41.334,207.494 41.865 C 208.205 42.396,209.550 43.100,210.482 43.429 C 211.414 43.758,212.545 44.372,212.994 44.794 C 213.443 45.216,214.468 45.836,215.270 46.172 C 216.073 46.507,217.567 47.506,218.589 48.391 C 219.612 49.276,220.573 50.003,220.724 50.007 C 220.876 50.011,222.260 51.196,223.800 52.641 C 225.340 54.085,227.084 55.521,227.676 55.831 C 228.267 56.142,228.987 56.720,229.276 57.116 C 229.564 57.512,230.437 58.224,231.215 58.699 C 233.187 59.900,240.373 67.677,241.532 69.864 C 241.784 70.339,242.487 71.276,243.095 71.945 C 243.703 72.614,245.010 74.077,246.000 75.196 C 246.990 76.315,248.273 77.718,248.851 78.315 C 249.428 78.912,250.120 80.082,250.386 80.915 C 250.653 81.748,251.371 82.976,251.981 83.644 C 252.592 84.312,253.300 85.558,253.556 86.411 C 253.812 87.265,254.463 88.489,255.003 89.130 C 255.542 89.772,256.350 91.151,256.798 92.194 C 257.245 93.238,257.972 94.599,258.414 95.220 C 258.856 95.840,259.490 97.124,259.825 98.074 C 260.159 99.023,260.859 100.430,261.381 101.200 C 261.902 101.970,262.610 103.988,262.952 105.684 C 263.295 107.380,264.026 109.630,264.577 110.684 C 265.128 111.738,265.859 114.074,266.200 115.875 C 266.542 117.676,267.265 120.120,267.808 121.305 C 268.661 123.168,268.851 124.406,269.209 130.430 C 269.436 134.264,269.907 139.200,270.255 141.400 C 271.259 147.754,271.326 149.628,270.672 153.021 C 269.845 157.313,269.666 159.038,269.202 167.200 C 268.850 173.380,268.689 174.421,267.829 176.085 C 267.293 177.121,266.560 179.551,266.200 181.485 C 265.841 183.418,265.129 185.720,264.620 186.600 C 264.110 187.480,263.404 189.602,263.052 191.316 C 262.404 194.466,261.938 195.692,260.959 196.820 C 260.663 197.161,260.169 198.153,259.862 199.025 C 259.554 199.898,258.749 201.483,258.073 202.549 C 257.398 203.614,256.733 204.993,256.597 205.612 C 256.462 206.230,255.901 207.222,255.351 207.815 C 254.801 208.408,253.989 209.818,253.546 210.947 C 253.103 212.076,252.402 213.362,251.990 213.805 C 251.577 214.248,250.857 215.473,250.390 216.529 C 249.923 217.584,249.288 218.545,248.979 218.663 C 248.669 218.782,248.064 219.447,247.633 220.140 C 247.202 220.833,245.755 222.570,244.417 224.000 C 243.080 225.430,241.734 227.092,241.427 227.693 C 239.834 230.811,230.811 239.834,227.693 241.427 C 227.092 241.734,225.430 243.080,224.000 244.417 C 222.570 245.755,220.833 247.202,220.140 247.633 C 219.447 248.064,218.782 248.669,218.663 248.979 C 218.545 249.288,217.584 249.923,216.529 250.390 C 215.473 250.857,214.248 251.577,213.805 251.990 C 213.362 252.402,212.076 253.103,210.947 253.546 C 209.818 253.989,208.408 254.801,207.815 255.351 C 207.222 255.901,206.230 256.462,205.612 256.597 C 204.993 256.733,203.614 257.398,202.549 258.073 C 201.483 258.749,199.898 259.554,199.025 259.862 C 198.153 260.169,197.161 260.663,196.820 260.959 C 195.692 261.938,194.466 262.404,191.316 263.052 C 189.602 263.404,187.480 264.110,186.600 264.620 C 185.720 265.129,183.418 265.841,181.485 266.200 C 179.551 266.560,177.121 267.293,176.085 267.829 C 174.421 268.689,173.380 268.850,167.200 269.202 C 159.038 269.666,157.313 269.845,153.021 270.672 C 149.628 271.326,147.754 271.259,141.400 270.255 C 139.200 269.907,134.264 269.436,130.430 269.209 C 124.406 268.851,123.168 268.661,121.305 267.808 C 120.120 267.265,117.676 266.542,115.875 266.200 C 114.074 265.859,111.738 265.128,110.684 264.577 C 109.630 264.026,107.380 263.295,105.684 262.952 C 103.988 262.610,101.970 261.902,101.200 261.381 C 100.430 260.859,99.023 260.159,98.074 259.825 C 97.124 259.490,95.840 258.856,95.220 258.414 C 94.599 257.972,93.238 257.245,92.194 256.798 C 91.151 256.350,89.772 255.542,89.130 255.003 C 88.489 254.463,87.265 253.812,86.411 253.556 C 85.558 253.300,84.312 252.592,83.644 251.981 C 82.976 251.371,81.748 250.653,80.915 250.386 C 80.082 250.120,78.912 249.428,78.315 248.851 C 77.718 248.273,76.315 246.990,75.196 246.000 C 74.077 245.010,72.614 243.703,71.945 243.095 C 71.276 242.487,70.339 241.784,69.864 241.532 C 67.677 240.373,59.900 233.187,58.699 231.215 C 58.224 230.437,57.512 229.564,57.116 229.276 C 56.720 228.987,56.142 228.267,55.831 227.676 C 55.521 227.084,54.085 225.340,52.641 223.800 C 51.196 222.260,50.011 220.876,50.007 220.724 C 50.003 220.573,49.276 219.612,48.391 218.589 C 47.506 217.567,46.507 216.073,46.172 215.270 C 45.836 214.468,45.216 213.443,44.794 212.994 C 44.372 212.545,43.758 211.414,43.429 210.482 C 43.100 209.550,42.396 208.205,41.865 207.494 C 41.334 206.782,40.687 205.537,40.427 204.727 C 40.168 203.917,39.436 202.600,38.800 201.800 C 38.164 201.000,37.435 199.683,37.179 198.873 C 36.923 198.063,36.284 196.762,35.759 195.981 C 35.207 195.161,34.466 192.979,34.001 190.806 C 33.560 188.740,32.844 186.318,32.411 185.424 C 31.979 184.529,31.352 182.373,31.018 180.631 C 30.685 178.889,29.957 176.593,29.401 175.529 C 28.479 173.765,28.338 172.810,27.801 164.689 C 27.478 159.790,26.934 154.177,26.591 152.214 C 26.035 149.025,26.032 148.260,26.564 145.023 C 27.267 140.739,27.503 138.268,27.991 130.085 C 28.303 124.848,28.500 123.665,29.361 121.845 C 29.915 120.676,30.725 118.081,31.162 116.079 C 31.599 114.077,32.212 112.025,32.524 111.519 C 33.118 110.559,33.679 108.540,34.404 104.755 C 34.640 103.520,35.272 101.916,35.807 101.190 C 36.343 100.465,36.993 99.225,37.253 98.435 C 37.514 97.646,38.328 96.125,39.063 95.055 C 39.798 93.985,40.400 92.886,40.400 92.611 C 40.400 92.336,40.880 91.412,41.467 90.556 C 42.054 89.700,42.878 88.100,43.298 87.000 C 43.718 85.900,44.476 84.550,44.984 84.000 C 45.491 83.450,46.264 82.190,46.701 81.200 C 47.138 80.210,48.059 78.871,48.748 78.225 C 49.437 77.579,50.000 76.823,50.000 76.546 C 50.000 76.268,50.630 75.560,51.400 74.973 C 52.170 74.386,52.800 73.670,52.800 73.382 C 52.800 73.094,53.407 72.350,54.149 71.729 C 54.891 71.108,55.795 70.015,56.159 69.300 C 56.523 68.585,56.994 68.000,57.205 68.000 C 57.417 68.000,58.031 67.301,58.571 66.447 C 59.834 64.445,64.445 59.834,66.447 58.571 C 67.301 58.031,68.000 57.417,68.000 57.205 C 68.000 56.994,68.585 56.523,69.300 56.159 C 70.015 55.795,71.108 54.891,71.729 54.149 C 72.350 53.407,73.094 52.800,73.382 52.800 C 73.670 52.800,74.386 52.170,74.973 51.400 C 75.560 50.630,76.268 50.000,76.546 50.000 C 76.823 50.000,77.579 49.437,78.225 48.748 C 78.871 48.059,80.210 47.138,81.200 46.701 C 82.190 46.264,83.450 45.491,84.000 44.984 C 84.550 44.476,85.900 43.718,87.000 43.298 C 88.100 42.878,89.700 42.054,90.556 41.467 C 91.412 40.880,92.336 40.400,92.611 40.400 C 92.886 40.400,93.985 39.798,95.055 39.063 C 96.125 38.328,97.646 37.514,98.435 37.253 C 99.225 36.993,100.465 36.343,101.190 35.807 C 101.916 35.272,103.520 34.640,104.755 34.404 C 108.540 33.679,110.559 33.118,111.519 32.524 C 112.025 32.212,114.077 31.599,116.079 31.162 C 118.081 30.725,120.680 29.912,121.855 29.357 C 123.721 28.474,124.836 28.297,130.695 27.958 C 137.266 27.577,146.782 26.552,147.148 26.185 C 147.459 25.874,148.847 25.988,152.389 26.614 M307.941 268.409 C 306.852 269.045,300.223 275.711,299.430 276.968 C 299.025 277.610,299.932 276.897,301.446 275.384 C 306.421 270.415,308.796 268.000,308.697 268.012 C 308.644 268.019,308.303 268.198,307.941 268.409 " stroke="none" fill="#7c8c9e" fill-rule="evenodd"></path></g></svg>